# xmcd
#
# Track frame offsets: 
#        225
#        25958
#        42768
#        63144
#        83451
#        107111
#        123148
#        137852
#        156795
#        177150
#        193397
#
# Disc length: 2997 seconds
#
# Revision: 6
# Processed by: cddbd v1.5.2PL0 Copyright (c) Steve Scherf et al.
# Submitted via: ExactAudioCopy v0.99pb5
#
DISCID=8b0bb20b
DTITLE=Van Morrison - Keep It Simple
DYEAR=2008
DGENRE=Rock and Roll
TTITLE0=How Can A Poor Boy?
TTITLE1=School Of Hard Knocks
TTITLE2=That's Entrainment
TTITLE3=Don't Go To Nightclubs Anymore
TTITLE4=Lover Come Back
TTITLE5=Keep It Simple
TTITLE6=End Of The Land
TTITLE7=Song Of Home
TTITLE8=No Thing
TTITLE9=Soul
TTITLE10=Behind The Ritual
EXTD=
EXTT0=
EXTT1=
EXTT2=
EXTT3=
EXTT4=
EXTT5=
EXTT6=
EXTT7=
EXTT8=
EXTT9=
EXTT10=
PLAYORDER=
